<?xml version="1.0" standalone="no"?>
<!DOCTYPE svg PUBLIC "-//W3C//DTD SVG 20010904//EN"
 "http://www.w3.org/TR/2001/REC-SVG-20010904/DTD/svg10.dtd">
<svg version="1.0" xmlns="http://www.w3.org/2000/svg"
 width="700.000000pt" height="700.000000pt" viewBox="0 0 700.000000 700.000000"
 preserveAspectRatio="xMidYMid meet">
<metadata>
Created by potrace 1.14, written by Peter Selinger 2001-2017
</metadata>
<g transform="translate(0.000000,700.000000) scale(0.100000,-0.100000)"
fill="#000000" stroke="none">
<path d="M3280 6993 c-19 -1 -87 -8 -150 -14 -942 -89 -1835 -593 -2420 -1364
-250 -329 -453 -730 -565 -1115 -176 -609 -190 -1249 -39 -1852 214 -851 729
-1580 1459 -2063 476 -315 957 -488 1555 -561 187 -23 565 -23 765 0 1035 119
1936 662 2514 1516 323 477 513 1001 583 1605 19 165 16 579 -6 755 -76 633
-299 1195 -670 1695 -662 890 -1716 1413 -2826 1403 -91 -1 -181 -3 -200 -5z
m1557 -2197 c212 -56 366 -224 403 -436 8 -45 10 -289 8 -790 l-3 -725 -26
-66 c-14 -37 -37 -86 -51 -111 -40 -67 -132 -153 -209 -193 -123 -65 -124 -65
-929 -65 l-725 -1 -335 -323 -335 -323 -3 323 -2 324 -195 0 c-220 0 -270 8
-374 57 -145 69 -271 236 -300 397 -7 39 -11 305 -11 755 0 776 0 777 67 904
68 130 196 233 339 272 73 20 2605 21 2681 1z"/>
</g>
</svg>
